<mxfile host="app.diagrams.net" modified="2024-02-18T23:05:15.346Z" agent="Mozilla/5.0 (Windows NT 10.0; Win64; x64) AppleWebKit/537.36 (KHTML, like Gecko) Chrome/121.0.0.0 Safari/537.36" etag="Ei5OZ0Z4AcNDJb9nr_9y" version="23.1.5" type="github">
  <diagram name="Seite-1" id="WTBAxA2iXZAQIMYn6fSl">
    <mxGraphModel dx="1534" dy="831" grid="1" gridSize="10" guides="1" tooltips="1" connect="1" arrows="1" fold="1" page="1" pageScale="1" pageWidth="827" pageHeight="1169" math="0" shadow="0">
      <root>
        <mxCell id="0" />
        <mxCell id="1" parent="0" />
        <mxCell id="xDKVVy-xrMNrOV89pV4P-1" value="Pizzabestellung" style="swimlane;html=1;childLayout=stackLayout;resizeParent=1;resizeParentMax=0;horizontal=0;startSize=20;horizontalStack=0;whiteSpace=wrap;" vertex="1" parent="1">
          <mxGeometry x="40" y="40" width="760" height="480" as="geometry" />
        </mxCell>
        <mxCell id="xDKVVy-xrMNrOV89pV4P-2" value="Besteller" style="swimlane;html=1;startSize=20;horizontal=0;" vertex="1" parent="xDKVVy-xrMNrOV89pV4P-1">
          <mxGeometry x="20" width="740" height="120" as="geometry" />
        </mxCell>
        <mxCell id="xDKVVy-xrMNrOV89pV4P-6" value="" style="points=[[0.145,0.145,0],[0.5,0,0],[0.855,0.145,0],[1,0.5,0],[0.855,0.855,0],[0.5,1,0],[0.145,0.855,0],[0,0.5,0]];shape=mxgraph.bpmn.event;html=1;verticalLabelPosition=bottom;labelBackgroundColor=#ffffff;verticalAlign=top;align=center;perimeter=ellipsePerimeter;outlineConnect=0;aspect=fixed;outline=standard;symbol=general;" vertex="1" parent="xDKVVy-xrMNrOV89pV4P-2">
          <mxGeometry x="60" y="40" width="40" height="40" as="geometry" />
        </mxCell>
        <mxCell id="xDKVVy-xrMNrOV89pV4P-7" value="Bestellung aufgeben" style="points=[[0.25,0,0],[0.5,0,0],[0.75,0,0],[1,0.25,0],[1,0.5,0],[1,0.75,0],[0.75,1,0],[0.5,1,0],[0.25,1,0],[0,0.75,0],[0,0.5,0],[0,0.25,0]];shape=mxgraph.bpmn.task;whiteSpace=wrap;rectStyle=rounded;size=10;html=1;container=1;expand=0;collapsible=0;taskMarker=abstract;" vertex="1" parent="xDKVVy-xrMNrOV89pV4P-2">
          <mxGeometry x="140" y="40" width="80" height="40" as="geometry" />
        </mxCell>
        <mxCell id="xDKVVy-xrMNrOV89pV4P-8" value="" style="shape=mxgraph.bpmn.data;labelPosition=center;verticalLabelPosition=bottom;align=center;verticalAlign=top;size=15;html=1;" vertex="1" parent="xDKVVy-xrMNrOV89pV4P-2">
          <mxGeometry x="260" y="40" width="30" height="40" as="geometry" />
        </mxCell>
        <mxCell id="xDKVVy-xrMNrOV89pV4P-9" style="edgeStyle=orthogonalEdgeStyle;rounded=0;orthogonalLoop=1;jettySize=auto;html=1;entryX=0.5;entryY=0;entryDx=0;entryDy=0;entryPerimeter=0;exitX=0;exitY=0;exitDx=15;exitDy=0;exitPerimeter=0;dashed=1;endArrow=open;endFill=0;" edge="1" parent="xDKVVy-xrMNrOV89pV4P-2" source="xDKVVy-xrMNrOV89pV4P-8" target="xDKVVy-xrMNrOV89pV4P-7">
          <mxGeometry relative="1" as="geometry" />
        </mxCell>
        <mxCell id="xDKVVy-xrMNrOV89pV4P-10" style="edgeStyle=orthogonalEdgeStyle;rounded=0;orthogonalLoop=1;jettySize=auto;html=1;entryX=0;entryY=0.5;entryDx=0;entryDy=0;entryPerimeter=0;endArrow=blockThin;endFill=1;" edge="1" parent="xDKVVy-xrMNrOV89pV4P-2" source="xDKVVy-xrMNrOV89pV4P-6" target="xDKVVy-xrMNrOV89pV4P-7">
          <mxGeometry relative="1" as="geometry" />
        </mxCell>
        <mxCell id="xDKVVy-xrMNrOV89pV4P-11" value="&lt;font style=&quot;font-size: 8px;&quot;&gt;Bestellungsdaten&lt;/font&gt;" style="text;html=1;align=center;verticalAlign=middle;resizable=0;points=[];autosize=1;strokeColor=none;fillColor=none;" vertex="1" parent="xDKVVy-xrMNrOV89pV4P-2">
          <mxGeometry x="235" y="70" width="80" height="30" as="geometry" />
        </mxCell>
        <mxCell id="xDKVVy-xrMNrOV89pV4P-16" style="edgeStyle=orthogonalEdgeStyle;rounded=0;orthogonalLoop=1;jettySize=auto;html=1;dashed=1;endArrow=open;endFill=0;" edge="1" parent="xDKVVy-xrMNrOV89pV4P-2" source="xDKVVy-xrMNrOV89pV4P-15">
          <mxGeometry relative="1" as="geometry">
            <mxPoint x="180" y="40" as="targetPoint" />
            <Array as="points">
              <mxPoint x="354" y="20" />
              <mxPoint x="180" y="20" />
            </Array>
          </mxGeometry>
        </mxCell>
        <mxCell id="xDKVVy-xrMNrOV89pV4P-15" value="" style="shape=mxgraph.bpmn.data;labelPosition=center;verticalLabelPosition=bottom;align=center;verticalAlign=top;size=15;html=1;" vertex="1" parent="xDKVVy-xrMNrOV89pV4P-2">
          <mxGeometry x="339" y="40" width="30" height="40" as="geometry" />
        </mxCell>
        <mxCell id="xDKVVy-xrMNrOV89pV4P-17" value="&lt;font style=&quot;font-size: 8px;&quot;&gt;Kundendaten&lt;/font&gt;" style="text;html=1;align=center;verticalAlign=middle;resizable=0;points=[];autosize=1;strokeColor=none;fillColor=none;" vertex="1" parent="xDKVVy-xrMNrOV89pV4P-2">
          <mxGeometry x="319" y="70" width="70" height="30" as="geometry" />
        </mxCell>
        <mxCell id="xDKVVy-xrMNrOV89pV4P-27" value="" style="points=[[0.145,0.145,0],[0.5,0,0],[0.855,0.145,0],[1,0.5,0],[0.855,0.855,0],[0.5,1,0],[0.145,0.855,0],[0,0.5,0]];shape=mxgraph.bpmn.event;html=1;verticalLabelPosition=bottom;labelBackgroundColor=#ffffff;verticalAlign=top;align=center;perimeter=ellipsePerimeter;outlineConnect=0;aspect=fixed;outline=throwing;symbol=general;" vertex="1" parent="xDKVVy-xrMNrOV89pV4P-2">
          <mxGeometry x="690" y="40" width="40" height="40" as="geometry" />
        </mxCell>
        <mxCell id="xDKVVy-xrMNrOV89pV4P-54" style="edgeStyle=orthogonalEdgeStyle;rounded=0;orthogonalLoop=1;jettySize=auto;html=1;exitX=0.75;exitY=1;exitDx=0;exitDy=0;exitPerimeter=0;" edge="1" parent="xDKVVy-xrMNrOV89pV4P-2" source="xDKVVy-xrMNrOV89pV4P-7">
          <mxGeometry relative="1" as="geometry">
            <mxPoint x="389.02" y="65" as="sourcePoint" />
            <mxPoint x="424" y="60" as="targetPoint" />
            <Array as="points">
              <mxPoint x="200" y="100" />
              <mxPoint x="389" y="100" />
              <mxPoint x="389" y="60" />
              <mxPoint x="424" y="60" />
            </Array>
          </mxGeometry>
        </mxCell>
        <mxCell id="xDKVVy-xrMNrOV89pV4P-55" value="" style="points=[[0.145,0.145,0],[0.5,0,0],[0.855,0.145,0],[1,0.5,0],[0.855,0.855,0],[0.5,1,0],[0.145,0.855,0],[0,0.5,0]];shape=mxgraph.bpmn.event;html=1;verticalLabelPosition=bottom;labelBackgroundColor=#ffffff;verticalAlign=top;align=center;perimeter=ellipsePerimeter;outlineConnect=0;aspect=fixed;outline=eventNonint;symbol=timer;" vertex="1" parent="xDKVVy-xrMNrOV89pV4P-2">
          <mxGeometry x="425" y="40" width="40" height="40" as="geometry" />
        </mxCell>
        <mxCell id="xDKVVy-xrMNrOV89pV4P-56" value="&lt;font style=&quot;font-size: 8px;&quot;&gt;Bestellzeit &amp;gt; 65min&lt;/font&gt;" style="text;html=1;align=center;verticalAlign=middle;resizable=0;points=[];autosize=1;strokeColor=none;fillColor=none;" vertex="1" parent="xDKVVy-xrMNrOV89pV4P-2">
          <mxGeometry x="400" y="80" width="90" height="30" as="geometry" />
        </mxCell>
        <mxCell id="xDKVVy-xrMNrOV89pV4P-57" value="&lt;font style=&quot;font-size: 8px;&quot;&gt;Nachfrage wo die Pizza bleibt&lt;/font&gt;" style="points=[[0.25,0,0],[0.5,0,0],[0.75,0,0],[1,0.25,0],[1,0.5,0],[1,0.75,0],[0.75,1,0],[0.5,1,0],[0.25,1,0],[0,0.75,0],[0,0.5,0],[0,0.25,0]];shape=mxgraph.bpmn.task;whiteSpace=wrap;rectStyle=rounded;size=10;html=1;container=1;expand=0;collapsible=0;taskMarker=abstract;" vertex="1" parent="xDKVVy-xrMNrOV89pV4P-2">
          <mxGeometry x="500" y="40" width="80" height="40" as="geometry" />
        </mxCell>
        <mxCell id="xDKVVy-xrMNrOV89pV4P-58" style="edgeStyle=orthogonalEdgeStyle;rounded=0;orthogonalLoop=1;jettySize=auto;html=1;entryX=0;entryY=0.5;entryDx=0;entryDy=0;entryPerimeter=0;" edge="1" parent="xDKVVy-xrMNrOV89pV4P-2" source="xDKVVy-xrMNrOV89pV4P-55" target="xDKVVy-xrMNrOV89pV4P-57">
          <mxGeometry relative="1" as="geometry" />
        </mxCell>
        <mxCell id="xDKVVy-xrMNrOV89pV4P-64" value="1" style="ellipse;whiteSpace=wrap;html=1;" vertex="1" parent="xDKVVy-xrMNrOV89pV4P-2">
          <mxGeometry x="590" y="90" width="20" height="20" as="geometry" />
        </mxCell>
        <mxCell id="xDKVVy-xrMNrOV89pV4P-65" value="" style="edgeStyle=orthogonalEdgeStyle;rounded=0;orthogonalLoop=1;jettySize=auto;html=1;entryX=0;entryY=0.5;entryDx=0;entryDy=0;" edge="1" parent="xDKVVy-xrMNrOV89pV4P-2" source="xDKVVy-xrMNrOV89pV4P-57" target="xDKVVy-xrMNrOV89pV4P-64">
          <mxGeometry relative="1" as="geometry">
            <Array as="points">
              <mxPoint x="540" y="100" />
            </Array>
          </mxGeometry>
        </mxCell>
        <mxCell id="xDKVVy-xrMNrOV89pV4P-3" value="Lieferant" style="swimlane;html=1;startSize=20;horizontal=0;" vertex="1" parent="xDKVVy-xrMNrOV89pV4P-1">
          <mxGeometry x="20" y="120" width="740" height="120" as="geometry" />
        </mxCell>
        <mxCell id="xDKVVy-xrMNrOV89pV4P-12" value="Bestellung weiterleiten" style="points=[[0.25,0,0],[0.5,0,0],[0.75,0,0],[1,0.25,0],[1,0.5,0],[1,0.75,0],[0.75,1,0],[0.5,1,0],[0.25,1,0],[0,0.75,0],[0,0.5,0],[0,0.25,0]];shape=mxgraph.bpmn.task;whiteSpace=wrap;rectStyle=rounded;size=10;html=1;container=1;expand=0;collapsible=0;taskMarker=abstract;" vertex="1" parent="xDKVVy-xrMNrOV89pV4P-3">
          <mxGeometry x="220" y="40" width="80" height="40" as="geometry" />
        </mxCell>
        <mxCell id="xDKVVy-xrMNrOV89pV4P-18" value="" style="shape=mxgraph.bpmn.data;labelPosition=center;verticalLabelPosition=bottom;align=center;verticalAlign=top;size=15;html=1;" vertex="1" parent="xDKVVy-xrMNrOV89pV4P-3">
          <mxGeometry x="340" y="40" width="30" height="40" as="geometry" />
        </mxCell>
        <mxCell id="xDKVVy-xrMNrOV89pV4P-19" value="&lt;font style=&quot;font-size: 8px;&quot;&gt;Bestellungsdaten&lt;/font&gt;" style="text;html=1;align=center;verticalAlign=middle;resizable=0;points=[];autosize=1;strokeColor=none;fillColor=none;" vertex="1" parent="xDKVVy-xrMNrOV89pV4P-3">
          <mxGeometry x="315" y="70" width="80" height="30" as="geometry" />
        </mxCell>
        <mxCell id="xDKVVy-xrMNrOV89pV4P-20" style="edgeStyle=orthogonalEdgeStyle;rounded=0;orthogonalLoop=1;jettySize=auto;html=1;entryX=1;entryY=0.5;entryDx=0;entryDy=0;entryPerimeter=0;exitX=0;exitY=0.5;exitDx=0;exitDy=0;exitPerimeter=0;endArrow=open;endFill=0;dashed=1;" edge="1" parent="xDKVVy-xrMNrOV89pV4P-3" source="xDKVVy-xrMNrOV89pV4P-18" target="xDKVVy-xrMNrOV89pV4P-12">
          <mxGeometry relative="1" as="geometry" />
        </mxCell>
        <mxCell id="xDKVVy-xrMNrOV89pV4P-25" value="Pizza ausliefern" style="points=[[0.25,0,0],[0.5,0,0],[0.75,0,0],[1,0.25,0],[1,0.5,0],[1,0.75,0],[0.75,1,0],[0.5,1,0],[0.25,1,0],[0,0.75,0],[0,0.5,0],[0,0.25,0]];shape=mxgraph.bpmn.task;whiteSpace=wrap;rectStyle=rounded;size=10;html=1;container=1;expand=0;collapsible=0;taskMarker=abstract;" vertex="1" parent="xDKVVy-xrMNrOV89pV4P-3">
          <mxGeometry x="510" y="40" width="80" height="40" as="geometry" />
        </mxCell>
        <mxCell id="xDKVVy-xrMNrOV89pV4P-4" value="Pizzabäcker" style="swimlane;html=1;startSize=20;horizontal=0;" vertex="1" parent="xDKVVy-xrMNrOV89pV4P-1">
          <mxGeometry x="20" y="240" width="740" height="120" as="geometry" />
        </mxCell>
        <mxCell id="xDKVVy-xrMNrOV89pV4P-44" style="edgeStyle=orthogonalEdgeStyle;rounded=0;orthogonalLoop=1;jettySize=auto;html=1;" edge="1" parent="xDKVVy-xrMNrOV89pV4P-4" source="xDKVVy-xrMNrOV89pV4P-14" target="xDKVVy-xrMNrOV89pV4P-42">
          <mxGeometry relative="1" as="geometry" />
        </mxCell>
        <mxCell id="xDKVVy-xrMNrOV89pV4P-14" value="Pizza zubereiten" style="points=[[0.25,0,0],[0.5,0,0],[0.75,0,0],[1,0.25,0],[1,0.5,0],[1,0.75,0],[0.75,1,0],[0.5,1,0],[0.25,1,0],[0,0.75,0],[0,0.5,0],[0,0.25,0]];shape=mxgraph.bpmn.task;whiteSpace=wrap;rectStyle=rounded;size=10;html=1;container=1;expand=0;collapsible=0;taskMarker=abstract;" vertex="1" parent="xDKVVy-xrMNrOV89pV4P-4">
          <mxGeometry x="360" y="29.98" width="80" height="40" as="geometry" />
        </mxCell>
        <mxCell id="xDKVVy-xrMNrOV89pV4P-61" style="edgeStyle=orthogonalEdgeStyle;rounded=0;orthogonalLoop=1;jettySize=auto;html=1;" edge="1" parent="xDKVVy-xrMNrOV89pV4P-4" source="xDKVVy-xrMNrOV89pV4P-42">
          <mxGeometry relative="1" as="geometry">
            <mxPoint x="550" y="-40" as="targetPoint" />
          </mxGeometry>
        </mxCell>
        <mxCell id="xDKVVy-xrMNrOV89pV4P-62" value="&lt;font style=&quot;font-size: 8px;&quot;&gt;ja&lt;/font&gt;" style="edgeLabel;html=1;align=center;verticalAlign=middle;resizable=0;points=[];" vertex="1" connectable="0" parent="xDKVVy-xrMNrOV89pV4P-61">
          <mxGeometry x="-0.0959" y="1" relative="1" as="geometry">
            <mxPoint as="offset" />
          </mxGeometry>
        </mxCell>
        <mxCell id="xDKVVy-xrMNrOV89pV4P-42" value="" style="points=[[0.25,0.25,0],[0.5,0,0],[0.75,0.25,0],[1,0.5,0],[0.75,0.75,0],[0.5,1,0],[0.25,0.75,0],[0,0.5,0]];shape=mxgraph.bpmn.gateway2;html=1;verticalLabelPosition=bottom;labelBackgroundColor=#ffffff;verticalAlign=top;align=center;perimeter=rhombusPerimeter;outlineConnect=0;outline=none;symbol=none;gwType=exclusive;" vertex="1" parent="xDKVVy-xrMNrOV89pV4P-4">
          <mxGeometry x="470" y="24.98" width="50" height="50" as="geometry" />
        </mxCell>
        <mxCell id="xDKVVy-xrMNrOV89pV4P-43" value="&lt;font style=&quot;font-size: 8px;&quot;&gt;Pizza zubereitet&lt;/font&gt;" style="text;html=1;align=center;verticalAlign=middle;resizable=0;points=[];autosize=1;strokeColor=none;fillColor=none;" vertex="1" parent="xDKVVy-xrMNrOV89pV4P-4">
          <mxGeometry x="490" y="54.980000000000004" width="80" height="30" as="geometry" />
        </mxCell>
        <mxCell id="xDKVVy-xrMNrOV89pV4P-48" style="edgeStyle=orthogonalEdgeStyle;rounded=0;orthogonalLoop=1;jettySize=auto;html=1;entryX=0.5;entryY=0;entryDx=0;entryDy=0;entryPerimeter=0;" edge="1" parent="xDKVVy-xrMNrOV89pV4P-4" source="xDKVVy-xrMNrOV89pV4P-42" target="xDKVVy-xrMNrOV89pV4P-14">
          <mxGeometry relative="1" as="geometry">
            <Array as="points">
              <mxPoint x="495" y="9.98" />
              <mxPoint x="400" y="9.98" />
            </Array>
          </mxGeometry>
        </mxCell>
        <mxCell id="xDKVVy-xrMNrOV89pV4P-49" value="&lt;font style=&quot;font-size: 8px;&quot;&gt;nein&lt;/font&gt;" style="edgeLabel;html=1;align=center;verticalAlign=middle;resizable=0;points=[];" vertex="1" connectable="0" parent="xDKVVy-xrMNrOV89pV4P-48">
          <mxGeometry x="-0.1878" relative="1" as="geometry">
            <mxPoint as="offset" />
          </mxGeometry>
        </mxCell>
        <mxCell id="xDKVVy-xrMNrOV89pV4P-5" value="Pizzaservice" style="swimlane;html=1;startSize=20;horizontal=0;" vertex="1" parent="xDKVVy-xrMNrOV89pV4P-1">
          <mxGeometry x="20" y="360" width="740" height="120" as="geometry">
            <mxRectangle x="20" y="360" width="460" height="120" as="alternateBounds" />
          </mxGeometry>
        </mxCell>
        <mxCell id="xDKVVy-xrMNrOV89pV4P-66" value="1" style="ellipse;whiteSpace=wrap;html=1;" vertex="1" parent="xDKVVy-xrMNrOV89pV4P-5">
          <mxGeometry x="540" y="50.00000000000003" width="20" height="20" as="geometry" />
        </mxCell>
        <mxCell id="xDKVVy-xrMNrOV89pV4P-67" value="&lt;font style=&quot;font-size: 10px;&quot;&gt;Nachricht an den Pizzabäcker weiterleiten&lt;/font&gt;" style="points=[[0.25,0,0],[0.5,0,0],[0.75,0,0],[1,0.25,0],[1,0.5,0],[1,0.75,0],[0.75,1,0],[0.5,1,0],[0.25,1,0],[0,0.75,0],[0,0.5,0],[0,0.25,0]];shape=mxgraph.bpmn.task;whiteSpace=wrap;rectStyle=rounded;size=10;html=1;container=1;expand=0;collapsible=0;taskMarker=abstract;" vertex="1" parent="xDKVVy-xrMNrOV89pV4P-5">
          <mxGeometry x="370" y="40" width="120" height="40" as="geometry" />
        </mxCell>
        <mxCell id="xDKVVy-xrMNrOV89pV4P-68" style="edgeStyle=orthogonalEdgeStyle;rounded=0;orthogonalLoop=1;jettySize=auto;html=1;exitX=0;exitY=0.5;exitDx=0;exitDy=0;entryX=1;entryY=0.5;entryDx=0;entryDy=0;entryPerimeter=0;" edge="1" parent="xDKVVy-xrMNrOV89pV4P-5" source="xDKVVy-xrMNrOV89pV4P-66" target="xDKVVy-xrMNrOV89pV4P-67">
          <mxGeometry relative="1" as="geometry" />
        </mxCell>
        <mxCell id="xDKVVy-xrMNrOV89pV4P-13" style="edgeStyle=orthogonalEdgeStyle;rounded=0;orthogonalLoop=1;jettySize=auto;html=1;entryX=0;entryY=0.5;entryDx=0;entryDy=0;entryPerimeter=0;endArrow=blockThin;endFill=1;" edge="1" parent="xDKVVy-xrMNrOV89pV4P-1" source="xDKVVy-xrMNrOV89pV4P-7" target="xDKVVy-xrMNrOV89pV4P-12">
          <mxGeometry relative="1" as="geometry">
            <Array as="points">
              <mxPoint x="200" y="180" />
            </Array>
          </mxGeometry>
        </mxCell>
        <mxCell id="xDKVVy-xrMNrOV89pV4P-28" style="edgeStyle=orthogonalEdgeStyle;rounded=0;orthogonalLoop=1;jettySize=auto;html=1;entryX=0;entryY=0.5;entryDx=0;entryDy=0;entryPerimeter=0;" edge="1" parent="xDKVVy-xrMNrOV89pV4P-1" source="xDKVVy-xrMNrOV89pV4P-25" target="xDKVVy-xrMNrOV89pV4P-27">
          <mxGeometry relative="1" as="geometry" />
        </mxCell>
        <mxCell id="xDKVVy-xrMNrOV89pV4P-60" style="edgeStyle=orthogonalEdgeStyle;rounded=0;orthogonalLoop=1;jettySize=auto;html=1;exitX=0.5;exitY=1;exitDx=0;exitDy=0;exitPerimeter=0;entryX=0;entryY=0.5;entryDx=0;entryDy=0;entryPerimeter=0;" edge="1" parent="xDKVVy-xrMNrOV89pV4P-1" source="xDKVVy-xrMNrOV89pV4P-12" target="xDKVVy-xrMNrOV89pV4P-14">
          <mxGeometry relative="1" as="geometry" />
        </mxCell>
        <mxCell id="xDKVVy-xrMNrOV89pV4P-71" style="edgeStyle=orthogonalEdgeStyle;rounded=0;orthogonalLoop=1;jettySize=auto;html=1;entryX=0.5;entryY=1;entryDx=0;entryDy=0;entryPerimeter=0;" edge="1" parent="xDKVVy-xrMNrOV89pV4P-1" source="xDKVVy-xrMNrOV89pV4P-67" target="xDKVVy-xrMNrOV89pV4P-14">
          <mxGeometry relative="1" as="geometry">
            <Array as="points">
              <mxPoint x="450" y="340" />
              <mxPoint x="420" y="340" />
            </Array>
          </mxGeometry>
        </mxCell>
      </root>
    </mxGraphModel>
  </diagram>
</mxfile>
